<svg width="24" height="24" viewBox="0 0 24 24" fill="none" xmlns="http://www.w3.org/2000/svg">
  <path d="M12 2C6.48 2 2 6.48 2 12C2 17.52 6.48 22 12 22C17.52 22 22 17.52 22 12C22 6.48 17.52 2 12 2ZM12 6C13.93 6 15.5 7.57 15.5 9.5C15.5 11.43 13.93 13 12 13C10.07 13 8.5 11.43 8.5 9.5C8.5 7.57 10.07 6 12 6ZM12 20C9.97 20 8.15 19.29 6.73 18.09C6.25 17.69 6 17.11 6 16.5C6 14.49 7.49 13 9.5 13H14.5C16.51 13 18 14.49 18 16.5C18 17.11 17.75 17.69 17.27 18.09C15.85 19.29 14.03 20 12 20Z" fill="#8B5CF6"/>
</svg>